<mxfile host="Electron" modified="2024-07-10T01:41:52.957Z" agent="Mozilla/5.0 (X11; Linux x86_64) AppleWebKit/537.36 (KHTML, like Gecko) draw.io/24.5.3 Chrome/124.0.6367.207 Electron/30.0.6 Safari/537.36" etag="eM5km2s0VexFUIPYF4j4" version="24.5.3" type="device">
  <diagram name="Page-1" id="mtjxCTcE2p7s19SbDK1A">
    <mxGraphModel dx="2440" dy="1409" grid="1" gridSize="10" guides="1" tooltips="1" connect="1" arrows="1" fold="1" page="1" pageScale="1" pageWidth="99900" pageHeight="99900" math="0" shadow="0">
      <root>
        <mxCell id="0" />
        <mxCell id="1" parent="0" />
        <mxCell id="_G4XFthJA_eqd3cxjOpP-15" value="" style="rounded=0;whiteSpace=wrap;html=1;fillColor=#1ba1e2;strokeColor=#006EAF;fontColor=#ffffff;" vertex="1" parent="1">
          <mxGeometry x="310" y="240" width="690" height="700" as="geometry" />
        </mxCell>
        <mxCell id="_G4XFthJA_eqd3cxjOpP-40" style="edgeStyle=orthogonalEdgeStyle;rounded=0;orthogonalLoop=1;jettySize=auto;html=1;entryX=0.5;entryY=0;entryDx=0;entryDy=0;" edge="1" parent="1" source="_G4XFthJA_eqd3cxjOpP-2" target="_G4XFthJA_eqd3cxjOpP-37">
          <mxGeometry relative="1" as="geometry" />
        </mxCell>
        <mxCell id="_G4XFthJA_eqd3cxjOpP-2" value="Actor" style="shape=umlActor;verticalLabelPosition=bottom;verticalAlign=top;html=1;outlineConnect=0;" vertex="1" parent="1">
          <mxGeometry x="636" y="150" width="30" height="60" as="geometry" />
        </mxCell>
        <mxCell id="_G4XFthJA_eqd3cxjOpP-9" style="edgeStyle=orthogonalEdgeStyle;rounded=0;orthogonalLoop=1;jettySize=auto;html=1;" edge="1" parent="1" source="_G4XFthJA_eqd3cxjOpP-3" target="_G4XFthJA_eqd3cxjOpP-8">
          <mxGeometry relative="1" as="geometry" />
        </mxCell>
        <mxCell id="_G4XFthJA_eqd3cxjOpP-13" style="edgeStyle=orthogonalEdgeStyle;rounded=0;orthogonalLoop=1;jettySize=auto;html=1;entryX=0.5;entryY=0;entryDx=0;entryDy=0;" edge="1" parent="1" source="_G4XFthJA_eqd3cxjOpP-3" target="_G4XFthJA_eqd3cxjOpP-12">
          <mxGeometry relative="1" as="geometry" />
        </mxCell>
        <mxCell id="_G4XFthJA_eqd3cxjOpP-22" style="edgeStyle=orthogonalEdgeStyle;rounded=0;orthogonalLoop=1;jettySize=auto;html=1;entryX=1;entryY=0.5;entryDx=0;entryDy=0;" edge="1" parent="1" source="_G4XFthJA_eqd3cxjOpP-3" target="_G4XFthJA_eqd3cxjOpP-17">
          <mxGeometry relative="1" as="geometry">
            <Array as="points">
              <mxPoint x="670" y="590" />
            </Array>
          </mxGeometry>
        </mxCell>
        <mxCell id="_G4XFthJA_eqd3cxjOpP-23" style="edgeStyle=orthogonalEdgeStyle;rounded=0;orthogonalLoop=1;jettySize=auto;html=1;entryX=1;entryY=0.5;entryDx=0;entryDy=0;" edge="1" parent="1" source="_G4XFthJA_eqd3cxjOpP-3" target="_G4XFthJA_eqd3cxjOpP-18">
          <mxGeometry relative="1" as="geometry">
            <Array as="points">
              <mxPoint x="660" y="660" />
            </Array>
          </mxGeometry>
        </mxCell>
        <mxCell id="_G4XFthJA_eqd3cxjOpP-24" style="edgeStyle=orthogonalEdgeStyle;rounded=0;orthogonalLoop=1;jettySize=auto;html=1;entryX=1;entryY=0.5;entryDx=0;entryDy=0;" edge="1" parent="1" source="_G4XFthJA_eqd3cxjOpP-3" target="_G4XFthJA_eqd3cxjOpP-19">
          <mxGeometry relative="1" as="geometry">
            <Array as="points">
              <mxPoint x="650" y="730" />
            </Array>
          </mxGeometry>
        </mxCell>
        <mxCell id="_G4XFthJA_eqd3cxjOpP-25" style="edgeStyle=orthogonalEdgeStyle;rounded=0;orthogonalLoop=1;jettySize=auto;html=1;entryX=1;entryY=0.5;entryDx=0;entryDy=0;" edge="1" parent="1" source="_G4XFthJA_eqd3cxjOpP-3" target="_G4XFthJA_eqd3cxjOpP-20">
          <mxGeometry relative="1" as="geometry">
            <Array as="points">
              <mxPoint x="640" y="800" />
            </Array>
          </mxGeometry>
        </mxCell>
        <mxCell id="_G4XFthJA_eqd3cxjOpP-26" style="edgeStyle=orthogonalEdgeStyle;rounded=0;orthogonalLoop=1;jettySize=auto;html=1;entryX=1;entryY=0.5;entryDx=0;entryDy=0;" edge="1" parent="1" source="_G4XFthJA_eqd3cxjOpP-3" target="_G4XFthJA_eqd3cxjOpP-21">
          <mxGeometry relative="1" as="geometry">
            <Array as="points">
              <mxPoint x="630" y="870" />
            </Array>
          </mxGeometry>
        </mxCell>
        <mxCell id="_G4XFthJA_eqd3cxjOpP-3" value="Guloggratis.dk" style="rounded=0;whiteSpace=wrap;html=1;" vertex="1" parent="1">
          <mxGeometry x="591" y="450" width="120" height="60" as="geometry" />
        </mxCell>
        <mxCell id="_G4XFthJA_eqd3cxjOpP-5" value="partners" style="rounded=0;whiteSpace=wrap;html=1;" vertex="1" parent="1">
          <mxGeometry x="340" y="420" width="120" height="60" as="geometry" />
        </mxCell>
        <mxCell id="_G4XFthJA_eqd3cxjOpP-6" value="partners" style="rounded=0;whiteSpace=wrap;html=1;" vertex="1" parent="1">
          <mxGeometry x="350" y="430" width="120" height="60" as="geometry" />
        </mxCell>
        <mxCell id="_G4XFthJA_eqd3cxjOpP-7" value="partners" style="rounded=0;whiteSpace=wrap;html=1;" vertex="1" parent="1">
          <mxGeometry x="360" y="440" width="120" height="60" as="geometry" />
        </mxCell>
        <mxCell id="_G4XFthJA_eqd3cxjOpP-8" value="partners" style="rounded=0;whiteSpace=wrap;html=1;" vertex="1" parent="1">
          <mxGeometry x="370" y="450" width="120" height="60" as="geometry" />
        </mxCell>
        <mxCell id="_G4XFthJA_eqd3cxjOpP-10" value="external services" style="ellipse;shape=cloud;whiteSpace=wrap;html=1;" vertex="1" parent="1">
          <mxGeometry x="140" y="490" width="146" height="110" as="geometry" />
        </mxCell>
        <mxCell id="_G4XFthJA_eqd3cxjOpP-29" style="edgeStyle=orthogonalEdgeStyle;rounded=0;orthogonalLoop=1;jettySize=auto;html=1;entryX=0.5;entryY=0;entryDx=0;entryDy=0;" edge="1" parent="1" source="_G4XFthJA_eqd3cxjOpP-12" target="_G4XFthJA_eqd3cxjOpP-28">
          <mxGeometry relative="1" as="geometry" />
        </mxCell>
        <mxCell id="_G4XFthJA_eqd3cxjOpP-12" value="Meta Pixel &amp;amp; Conversions API&lt;br&gt;System" style="rounded=0;whiteSpace=wrap;html=1;" vertex="1" parent="1">
          <mxGeometry x="741" y="570" width="120" height="60" as="geometry" />
        </mxCell>
        <mxCell id="_G4XFthJA_eqd3cxjOpP-16" value="&lt;b&gt;&lt;font style=&quot;font-size: 14px;&quot;&gt;GOOGLE CLOUD PLATFORM&lt;/font&gt;&lt;/b&gt;" style="text;html=1;align=center;verticalAlign=middle;whiteSpace=wrap;rounded=0;" vertex="1" parent="1">
          <mxGeometry x="310" y="260" width="160" height="30" as="geometry" />
        </mxCell>
        <mxCell id="_G4XFthJA_eqd3cxjOpP-17" value="Admin Service" style="rounded=0;whiteSpace=wrap;html=1;" vertex="1" parent="1">
          <mxGeometry x="370" y="560" width="120" height="60" as="geometry" />
        </mxCell>
        <mxCell id="_G4XFthJA_eqd3cxjOpP-18" value="Mailer Service" style="rounded=0;whiteSpace=wrap;html=1;" vertex="1" parent="1">
          <mxGeometry x="370" y="630" width="120" height="60" as="geometry" />
        </mxCell>
        <mxCell id="_G4XFthJA_eqd3cxjOpP-19" value="&lt;div&gt;&lt;span style=&quot;background-color: initial;&quot;&gt;Workers/Services&lt;/span&gt;&lt;br&gt;&lt;/div&gt;" style="rounded=0;whiteSpace=wrap;html=1;" vertex="1" parent="1">
          <mxGeometry x="370" y="700" width="120" height="60" as="geometry" />
        </mxCell>
        <mxCell id="_G4XFthJA_eqd3cxjOpP-20" value="Image Service" style="rounded=0;whiteSpace=wrap;html=1;" vertex="1" parent="1">
          <mxGeometry x="370" y="770" width="120" height="60" as="geometry" />
        </mxCell>
        <mxCell id="_G4XFthJA_eqd3cxjOpP-21" value="&lt;div&gt;&lt;span style=&quot;background-color: initial;&quot;&gt;N Service&lt;/span&gt;&lt;br&gt;&lt;/div&gt;" style="rounded=0;whiteSpace=wrap;html=1;" vertex="1" parent="1">
          <mxGeometry x="370" y="840" width="120" height="60" as="geometry" />
        </mxCell>
        <mxCell id="_G4XFthJA_eqd3cxjOpP-28" value="GCP&lt;br&gt;Meta Event Data Ingestion Pipelines" style="rounded=0;whiteSpace=wrap;html=1;" vertex="1" parent="1">
          <mxGeometry x="741" y="690" width="120" height="60" as="geometry" />
        </mxCell>
        <mxCell id="_G4XFthJA_eqd3cxjOpP-30" value="Meta Facebook&lt;br&gt;Events Manager" style="ellipse;shape=cloud;whiteSpace=wrap;html=1;" vertex="1" parent="1">
          <mxGeometry x="1028" y="543" width="180" height="120" as="geometry" />
        </mxCell>
        <mxCell id="_G4XFthJA_eqd3cxjOpP-32" style="edgeStyle=orthogonalEdgeStyle;rounded=0;orthogonalLoop=1;jettySize=auto;html=1;entryX=0.074;entryY=0.472;entryDx=0;entryDy=0;entryPerimeter=0;" edge="1" parent="1" source="_G4XFthJA_eqd3cxjOpP-12" target="_G4XFthJA_eqd3cxjOpP-30">
          <mxGeometry relative="1" as="geometry" />
        </mxCell>
        <mxCell id="_G4XFthJA_eqd3cxjOpP-33" style="edgeStyle=orthogonalEdgeStyle;rounded=0;orthogonalLoop=1;jettySize=auto;html=1;entryX=0.455;entryY=0.106;entryDx=0;entryDy=0;entryPerimeter=0;" edge="1" parent="1" source="_G4XFthJA_eqd3cxjOpP-5" target="_G4XFthJA_eqd3cxjOpP-10">
          <mxGeometry relative="1" as="geometry" />
        </mxCell>
        <mxCell id="_G4XFthJA_eqd3cxjOpP-35" value="&lt;font style=&quot;font-size: 20px;&quot;&gt;&lt;b&gt;Meta Event Tracking - Container&lt;/b&gt;&lt;/font&gt;" style="text;html=1;align=left;verticalAlign=middle;whiteSpace=wrap;rounded=0;" vertex="1" parent="1">
          <mxGeometry x="180" y="165" width="400" height="30" as="geometry" />
        </mxCell>
        <mxCell id="_G4XFthJA_eqd3cxjOpP-36" value="&lt;font style=&quot;font-size: 20px;&quot;&gt;&lt;b&gt;Meta Event Tracking - Component (GG&#39;s Event Tracking)&lt;/b&gt;&lt;/font&gt;" style="text;html=1;align=left;verticalAlign=middle;whiteSpace=wrap;rounded=0;" vertex="1" parent="1">
          <mxGeometry x="160" y="1000" width="590" height="30" as="geometry" />
        </mxCell>
        <mxCell id="_G4XFthJA_eqd3cxjOpP-38" style="edgeStyle=orthogonalEdgeStyle;rounded=0;orthogonalLoop=1;jettySize=auto;html=1;entryX=0.5;entryY=0;entryDx=0;entryDy=0;" edge="1" parent="1" source="_G4XFthJA_eqd3cxjOpP-37" target="_G4XFthJA_eqd3cxjOpP-3">
          <mxGeometry relative="1" as="geometry" />
        </mxCell>
        <mxCell id="_G4XFthJA_eqd3cxjOpP-37" value="API&lt;br&gt;GQL/Rest" style="rhombus;whiteSpace=wrap;html=1;" vertex="1" parent="1">
          <mxGeometry x="598.5" y="280" width="105" height="100" as="geometry" />
        </mxCell>
        <mxCell id="_G4XFthJA_eqd3cxjOpP-41" value="Postgres&lt;br&gt;Database" style="shape=cylinder3;whiteSpace=wrap;html=1;boundedLbl=1;backgroundOutline=1;size=15;" vertex="1" parent="1">
          <mxGeometry x="820" y="330" width="129" height="110" as="geometry" />
        </mxCell>
        <mxCell id="_G4XFthJA_eqd3cxjOpP-42" value="&lt;div&gt;&lt;span style=&quot;background-color: initial;&quot;&gt;Custom Hook&lt;/span&gt;&lt;br&gt;&lt;/div&gt;" style="rounded=0;whiteSpace=wrap;html=1;" vertex="1" parent="1">
          <mxGeometry x="300" y="1240" width="120" height="60" as="geometry" />
        </mxCell>
        <mxCell id="_G4XFthJA_eqd3cxjOpP-45" style="edgeStyle=orthogonalEdgeStyle;rounded=0;orthogonalLoop=1;jettySize=auto;html=1;" edge="1" parent="1" source="_G4XFthJA_eqd3cxjOpP-44" target="_G4XFthJA_eqd3cxjOpP-42">
          <mxGeometry relative="1" as="geometry" />
        </mxCell>
        <mxCell id="_G4XFthJA_eqd3cxjOpP-44" value="SPA/App" style="shape=document;whiteSpace=wrap;html=1;boundedLbl=1;" vertex="1" parent="1">
          <mxGeometry x="300" y="1090" width="120" height="80" as="geometry" />
        </mxCell>
        <mxCell id="_G4XFthJA_eqd3cxjOpP-46" value="Events" style="text;html=1;align=center;verticalAlign=middle;resizable=0;points=[];autosize=1;strokeColor=none;fillColor=none;" vertex="1" parent="1">
          <mxGeometry x="360" y="1190" width="60" height="30" as="geometry" />
        </mxCell>
        <mxCell id="_G4XFthJA_eqd3cxjOpP-72" value="publish event (retry)" style="text;html=1;align=center;verticalAlign=middle;resizable=0;points=[];autosize=1;strokeColor=none;fillColor=none;" vertex="1" parent="1">
          <mxGeometry x="620" y="1310" width="130" height="30" as="geometry" />
        </mxCell>
        <mxCell id="_G4XFthJA_eqd3cxjOpP-84" value="consumes" style="text;html=1;align=center;verticalAlign=middle;resizable=0;points=[];autosize=1;strokeColor=none;fillColor=none;" vertex="1" parent="1">
          <mxGeometry x="363.3699999999999" y="1490" width="80" height="30" as="geometry" />
        </mxCell>
        <mxCell id="_G4XFthJA_eqd3cxjOpP-89" value="&lt;div&gt;&lt;span style=&quot;background-color: initial;&quot;&gt;PubSub Primary Consumer&lt;/span&gt;&lt;br&gt;&lt;/div&gt;" style="rounded=0;whiteSpace=wrap;html=1;" vertex="1" parent="1">
          <mxGeometry x="300" y="1530" width="120" height="60" as="geometry" />
        </mxCell>
        <mxCell id="_G4XFthJA_eqd3cxjOpP-118" value="" style="group" vertex="1" connectable="0" parent="1">
          <mxGeometry x="250" y="1350" width="520" height="120" as="geometry" />
        </mxCell>
        <mxCell id="_G4XFthJA_eqd3cxjOpP-103" value="" style="rounded=0;whiteSpace=wrap;html=1;" vertex="1" parent="_G4XFthJA_eqd3cxjOpP-118">
          <mxGeometry width="520" height="120" as="geometry" />
        </mxCell>
        <mxCell id="_G4XFthJA_eqd3cxjOpP-110" value="" style="group" vertex="1" connectable="0" parent="_G4XFthJA_eqd3cxjOpP-118">
          <mxGeometry x="10" y="40" width="270" height="40.5" as="geometry" />
        </mxCell>
        <mxCell id="_G4XFthJA_eqd3cxjOpP-111" value="" style="shape=cylinder3;whiteSpace=wrap;html=1;boundedLbl=1;backgroundOutline=1;size=15;rotation=90;" vertex="1" parent="_G4XFthJA_eqd3cxjOpP-110">
          <mxGeometry x="114.75" y="-87" width="40.5" height="214.5" as="geometry" />
        </mxCell>
        <mxCell id="_G4XFthJA_eqd3cxjOpP-112" value="" style="group" vertex="1" connectable="0" parent="_G4XFthJA_eqd3cxjOpP-110">
          <mxGeometry y="0.25" width="270" height="40" as="geometry" />
        </mxCell>
        <mxCell id="_G4XFthJA_eqd3cxjOpP-113" value="meta-event-tracking" style="text;html=1;align=center;verticalAlign=middle;whiteSpace=wrap;rounded=0;" vertex="1" parent="_G4XFthJA_eqd3cxjOpP-112">
          <mxGeometry x="30" y="5" width="190" height="30" as="geometry" />
        </mxCell>
        <mxCell id="_G4XFthJA_eqd3cxjOpP-114" value="" style="group" vertex="1" connectable="0" parent="_G4XFthJA_eqd3cxjOpP-118">
          <mxGeometry x="240" y="40" width="270" height="40.5" as="geometry" />
        </mxCell>
        <mxCell id="_G4XFthJA_eqd3cxjOpP-115" value="" style="shape=cylinder3;whiteSpace=wrap;html=1;boundedLbl=1;backgroundOutline=1;size=15;rotation=90;" vertex="1" parent="_G4XFthJA_eqd3cxjOpP-114">
          <mxGeometry x="114.75" y="-87" width="40.5" height="214.5" as="geometry" />
        </mxCell>
        <mxCell id="_G4XFthJA_eqd3cxjOpP-116" value="" style="group" vertex="1" connectable="0" parent="_G4XFthJA_eqd3cxjOpP-114">
          <mxGeometry y="0.25" width="270" height="40" as="geometry" />
        </mxCell>
        <mxCell id="_G4XFthJA_eqd3cxjOpP-117" value="meta-event-tracking-retry" style="text;html=1;align=center;verticalAlign=middle;whiteSpace=wrap;rounded=0;" vertex="1" parent="_G4XFthJA_eqd3cxjOpP-116">
          <mxGeometry x="30" y="5" width="190" height="30" as="geometry" />
        </mxCell>
        <mxCell id="_G4XFthJA_eqd3cxjOpP-159" value="Events" style="text;html=1;align=center;verticalAlign=middle;resizable=0;points=[];autosize=1;strokeColor=none;fillColor=none;" vertex="1" parent="_G4XFthJA_eqd3cxjOpP-118">
          <mxGeometry x="230" y="10" width="60" height="30" as="geometry" />
        </mxCell>
        <mxCell id="_G4XFthJA_eqd3cxjOpP-120" value="" style="group" vertex="1" connectable="0" parent="1">
          <mxGeometry x="539.9963576158941" y="1069.996956521739" width="170.52980132450352" height="115.6521739130435" as="geometry" />
        </mxCell>
        <mxCell id="_G4XFthJA_eqd3cxjOpP-47" value="&lt;div style=&quot;font-size: 9px;&quot;&gt;&lt;br style=&quot;font-size: 9px;&quot;&gt;&lt;/div&gt;" style="rounded=0;whiteSpace=wrap;html=1;fontSize=9;container=0;" vertex="1" parent="_G4XFthJA_eqd3cxjOpP-120">
          <mxGeometry width="170.52980132450332" height="115.65217391304348" as="geometry" />
        </mxCell>
        <mxCell id="_G4XFthJA_eqd3cxjOpP-49" value="&lt;div style=&quot;font-size: 9px;&quot;&gt;&lt;span style=&quot;background-color: initial; font-size: 9px;&quot;&gt;Custom/Standard&lt;br style=&quot;font-size: 9px;&quot;&gt;&lt;/span&gt;Events&lt;/div&gt;" style="rounded=0;whiteSpace=wrap;html=1;fontSize=9;container=0;" vertex="1" parent="_G4XFthJA_eqd3cxjOpP-120">
          <mxGeometry x="13.74673891230168" y="32.69927536231876" width="68.73369456150914" height="32.699275362318836" as="geometry" />
        </mxCell>
        <mxCell id="_G4XFthJA_eqd3cxjOpP-52" value="&lt;div style=&quot;font-size: 9px;&quot;&gt;Event Handlers&lt;/div&gt;" style="rounded=0;whiteSpace=wrap;html=1;fontSize=9;container=0;" vertex="1" parent="_G4XFthJA_eqd3cxjOpP-120">
          <mxGeometry x="13.74673891230168" y="71.93565217391301" width="68.73369456150914" height="32.699275362318836" as="geometry" />
        </mxCell>
        <mxCell id="_G4XFthJA_eqd3cxjOpP-56" value="&lt;div style=&quot;font-size: 9px;&quot;&gt;Error handlers&lt;/div&gt;" style="rounded=0;whiteSpace=wrap;html=1;fontSize=9;container=0;" vertex="1" parent="_G4XFthJA_eqd3cxjOpP-120">
          <mxGeometry x="87.7521071643589" y="32.69927536231876" width="68.73369456150914" height="32.699275362318836" as="geometry" />
        </mxCell>
        <mxCell id="_G4XFthJA_eqd3cxjOpP-61" value="Meta Event Bus" style="text;html=1;align=left;verticalAlign=middle;whiteSpace=wrap;rounded=0;fontSize=9;container=0;" vertex="1" parent="_G4XFthJA_eqd3cxjOpP-120">
          <mxGeometry x="6.87336945615084" width="158.08749749147103" height="19.619565217391305" as="geometry" />
        </mxCell>
        <mxCell id="_G4XFthJA_eqd3cxjOpP-98" value="&lt;div style=&quot;font-size: 9px;&quot;&gt;Meta SDK&lt;br style=&quot;font-size: 9px;&quot;&gt;&lt;/div&gt;" style="rounded=0;whiteSpace=wrap;html=1;fontSize=9;container=0;" vertex="1" parent="_G4XFthJA_eqd3cxjOpP-120">
          <mxGeometry x="87.7521071643589" y="71.93840579710127" width="68.73369456150914" height="32.699275362318836" as="geometry" />
        </mxCell>
        <mxCell id="_G4XFthJA_eqd3cxjOpP-121" style="edgeStyle=orthogonalEdgeStyle;rounded=0;orthogonalLoop=1;jettySize=auto;html=1;entryX=0.211;entryY=-0.028;entryDx=0;entryDy=0;entryPerimeter=0;" edge="1" parent="1" source="_G4XFthJA_eqd3cxjOpP-42" target="_G4XFthJA_eqd3cxjOpP-103">
          <mxGeometry relative="1" as="geometry" />
        </mxCell>
        <mxCell id="_G4XFthJA_eqd3cxjOpP-122" value="&lt;div&gt;&lt;span style=&quot;background-color: initial;&quot;&gt;PubSub Publisher&lt;/span&gt;&lt;br&gt;&lt;/div&gt;" style="rounded=0;whiteSpace=wrap;html=1;" vertex="1" parent="1">
          <mxGeometry x="565.26" y="1240" width="120" height="60" as="geometry" />
        </mxCell>
        <mxCell id="_G4XFthJA_eqd3cxjOpP-123" style="edgeStyle=orthogonalEdgeStyle;rounded=0;orthogonalLoop=1;jettySize=auto;html=1;entryX=0.5;entryY=0;entryDx=0;entryDy=0;" edge="1" parent="1" source="_G4XFthJA_eqd3cxjOpP-47" target="_G4XFthJA_eqd3cxjOpP-122">
          <mxGeometry relative="1" as="geometry" />
        </mxCell>
        <mxCell id="_G4XFthJA_eqd3cxjOpP-124" style="edgeStyle=orthogonalEdgeStyle;rounded=0;orthogonalLoop=1;jettySize=auto;html=1;entryX=0.722;entryY=0.003;entryDx=0;entryDy=0;entryPerimeter=0;" edge="1" parent="1" source="_G4XFthJA_eqd3cxjOpP-122" target="_G4XFthJA_eqd3cxjOpP-103">
          <mxGeometry relative="1" as="geometry" />
        </mxCell>
        <mxCell id="_G4XFthJA_eqd3cxjOpP-125" value="" style="group" vertex="1" connectable="0" parent="1">
          <mxGeometry x="274.74" y="1660" width="445.26" height="200" as="geometry" />
        </mxCell>
        <mxCell id="_G4XFthJA_eqd3cxjOpP-126" value="&lt;div style=&quot;font-size: 9px;&quot;&gt;&lt;br style=&quot;font-size: 9px;&quot;&gt;&lt;/div&gt;" style="rounded=0;whiteSpace=wrap;html=1;fontSize=9;container=0;" vertex="1" parent="_G4XFthJA_eqd3cxjOpP-125">
          <mxGeometry width="445.2599999999994" height="199.99999999999997" as="geometry" />
        </mxCell>
        <mxCell id="_G4XFthJA_eqd3cxjOpP-127" value="&lt;div style=&quot;font-size: 9px;&quot;&gt;&lt;span style=&quot;background-color: initial; font-size: 9px;&quot;&gt;Custom/Standard&lt;br style=&quot;font-size: 9px;&quot;&gt;&lt;/span&gt;Events&lt;/div&gt;" style="rounded=0;whiteSpace=wrap;html=1;fontSize=9;container=0;" vertex="1" parent="_G4XFthJA_eqd3cxjOpP-125">
          <mxGeometry x="35.89327449249736" y="56.5476190476189" width="179.46637246248875" height="56.54761904761904" as="geometry" />
        </mxCell>
        <mxCell id="_G4XFthJA_eqd3cxjOpP-128" value="&lt;div style=&quot;font-size: 9px;&quot;&gt;Event Handlers&lt;/div&gt;" style="rounded=0;whiteSpace=wrap;html=1;fontSize=9;container=0;" vertex="1" parent="_G4XFthJA_eqd3cxjOpP-125">
          <mxGeometry x="35.89327449249736" y="124.39999999999993" width="179.46637246248875" height="56.54761904761904" as="geometry" />
        </mxCell>
        <mxCell id="_G4XFthJA_eqd3cxjOpP-129" value="&lt;div style=&quot;font-size: 9px;&quot;&gt;Error handlers&lt;/div&gt;" style="rounded=0;whiteSpace=wrap;html=1;fontSize=9;container=0;" vertex="1" parent="_G4XFthJA_eqd3cxjOpP-125">
          <mxGeometry x="229.12419373345094" y="56.5476190476189" width="179.46637246248875" height="56.54761904761904" as="geometry" />
        </mxCell>
        <mxCell id="_G4XFthJA_eqd3cxjOpP-130" value="Meta Event Bus" style="text;html=1;align=left;verticalAlign=middle;whiteSpace=wrap;rounded=0;fontSize=9;container=0;" vertex="1" parent="_G4XFthJA_eqd3cxjOpP-125">
          <mxGeometry x="17.94663724624868" width="412.77265666372415" height="33.92857142857142" as="geometry" />
        </mxCell>
        <mxCell id="_G4XFthJA_eqd3cxjOpP-131" value="&lt;div style=&quot;font-size: 9px;&quot;&gt;Meta SDK&lt;br style=&quot;font-size: 9px;&quot;&gt;&lt;/div&gt;" style="rounded=0;whiteSpace=wrap;html=1;fontSize=9;container=0;" vertex="1" parent="_G4XFthJA_eqd3cxjOpP-125">
          <mxGeometry x="229.12419373345094" y="124.40476190476157" width="179.46637246248875" height="56.54761904761904" as="geometry" />
        </mxCell>
        <mxCell id="_G4XFthJA_eqd3cxjOpP-132" style="edgeStyle=orthogonalEdgeStyle;rounded=0;orthogonalLoop=1;jettySize=auto;html=1;entryX=0.213;entryY=1.008;entryDx=0;entryDy=0;entryPerimeter=0;" edge="1" parent="1" source="_G4XFthJA_eqd3cxjOpP-89" target="_G4XFthJA_eqd3cxjOpP-103">
          <mxGeometry relative="1" as="geometry" />
        </mxCell>
        <mxCell id="_G4XFthJA_eqd3cxjOpP-133" value="&lt;div&gt;&lt;span style=&quot;background-color: initial;&quot;&gt;PubSub Retry Consumer&lt;/span&gt;&lt;br&gt;&lt;/div&gt;" style="rounded=0;whiteSpace=wrap;html=1;" vertex="1" parent="1">
          <mxGeometry x="565.26" y="1530" width="120" height="60" as="geometry" />
        </mxCell>
        <mxCell id="_G4XFthJA_eqd3cxjOpP-134" style="edgeStyle=orthogonalEdgeStyle;rounded=0;orthogonalLoop=1;jettySize=auto;html=1;entryX=0.722;entryY=1.029;entryDx=0;entryDy=0;entryPerimeter=0;" edge="1" parent="1" source="_G4XFthJA_eqd3cxjOpP-133" target="_G4XFthJA_eqd3cxjOpP-103">
          <mxGeometry relative="1" as="geometry" />
        </mxCell>
        <mxCell id="_G4XFthJA_eqd3cxjOpP-142" style="edgeStyle=orthogonalEdgeStyle;rounded=0;orthogonalLoop=1;jettySize=auto;html=1;entryX=0.5;entryY=1;entryDx=0;entryDy=0;exitX=0.162;exitY=0.011;exitDx=0;exitDy=0;exitPerimeter=0;" edge="1" parent="1" source="_G4XFthJA_eqd3cxjOpP-130" target="_G4XFthJA_eqd3cxjOpP-89">
          <mxGeometry relative="1" as="geometry" />
        </mxCell>
        <mxCell id="_G4XFthJA_eqd3cxjOpP-144" value="META" style="ellipse;shape=cloud;whiteSpace=wrap;html=1;" vertex="1" parent="1">
          <mxGeometry x="437.3699999999999" y="1920" width="120" height="80" as="geometry" />
        </mxCell>
        <mxCell id="_G4XFthJA_eqd3cxjOpP-147" style="edgeStyle=orthogonalEdgeStyle;rounded=0;orthogonalLoop=1;jettySize=auto;html=1;entryX=0.5;entryY=1;entryDx=0;entryDy=0;" edge="1" parent="1" source="_G4XFthJA_eqd3cxjOpP-130" target="_G4XFthJA_eqd3cxjOpP-133">
          <mxGeometry relative="1" as="geometry">
            <Array as="points">
              <mxPoint x="625" y="1640" />
              <mxPoint x="625" y="1640" />
            </Array>
          </mxGeometry>
        </mxCell>
        <mxCell id="_G4XFthJA_eqd3cxjOpP-148" style="edgeStyle=orthogonalEdgeStyle;rounded=0;orthogonalLoop=1;jettySize=auto;html=1;entryX=0.5;entryY=0.125;entryDx=0;entryDy=0;entryPerimeter=0;" edge="1" parent="1" source="_G4XFthJA_eqd3cxjOpP-126" target="_G4XFthJA_eqd3cxjOpP-144">
          <mxGeometry relative="1" as="geometry" />
        </mxCell>
        <mxCell id="_G4XFthJA_eqd3cxjOpP-149" value="" style="shape=tape;whiteSpace=wrap;html=1;" vertex="1" parent="1">
          <mxGeometry x="303.3699999999999" y="2020" width="120" height="100" as="geometry" />
        </mxCell>
        <mxCell id="_G4XFthJA_eqd3cxjOpP-150" value="" style="shape=tape;whiteSpace=wrap;html=1;" vertex="1" parent="1">
          <mxGeometry x="313.3699999999999" y="2030" width="120" height="100" as="geometry" />
        </mxCell>
        <mxCell id="_G4XFthJA_eqd3cxjOpP-151" value="" style="shape=tape;whiteSpace=wrap;html=1;" vertex="1" parent="1">
          <mxGeometry x="323.3699999999999" y="2040" width="120" height="100" as="geometry" />
        </mxCell>
        <mxCell id="_G4XFthJA_eqd3cxjOpP-152" value="&lt;font style=&quot;font-size: 10px;&quot;&gt;Meta Business&lt;br&gt;Suite&lt;/font&gt;" style="shape=tape;whiteSpace=wrap;html=1;" vertex="1" parent="1">
          <mxGeometry x="333.3699999999999" y="2050" width="120" height="100" as="geometry" />
        </mxCell>
        <mxCell id="_G4XFthJA_eqd3cxjOpP-154" value="" style="dashed=0;outlineConnect=0;html=1;align=center;labelPosition=center;verticalLabelPosition=bottom;verticalAlign=top;shape=mxgraph.webicons.facebook;fillColor=#6294E4;gradientColor=#1A2665" vertex="1" parent="1">
          <mxGeometry x="230.5" y="2010" width="45" height="40" as="geometry" />
        </mxCell>
        <mxCell id="_G4XFthJA_eqd3cxjOpP-155" value="" style="dashed=0;outlineConnect=0;html=1;align=center;labelPosition=center;verticalLabelPosition=bottom;verticalAlign=top;shape=mxgraph.weblogos.instagram;fillColor=#6FC0E4;gradientColor=#1E305B" vertex="1" parent="1">
          <mxGeometry x="230" y="2088" width="46" height="52" as="geometry" />
        </mxCell>
        <mxCell id="_G4XFthJA_eqd3cxjOpP-156" style="edgeStyle=orthogonalEdgeStyle;rounded=0;orthogonalLoop=1;jettySize=auto;html=1;entryX=1;entryY=0.5;entryDx=0;entryDy=0;entryPerimeter=0;" edge="1" parent="1" source="_G4XFthJA_eqd3cxjOpP-144" target="_G4XFthJA_eqd3cxjOpP-152">
          <mxGeometry relative="1" as="geometry" />
        </mxCell>
        <mxCell id="_G4XFthJA_eqd3cxjOpP-157" value="GCP&lt;br&gt;Meta Event Data&lt;br&gt;Ingestion Pipeline" style="shape=hexagon;perimeter=hexagonPerimeter2;whiteSpace=wrap;html=1;fixedSize=1;" vertex="1" parent="1">
          <mxGeometry x="790" y="1713.5" width="130" height="93" as="geometry" />
        </mxCell>
        <mxCell id="_G4XFthJA_eqd3cxjOpP-158" style="edgeStyle=orthogonalEdgeStyle;rounded=0;orthogonalLoop=1;jettySize=auto;html=1;" edge="1" parent="1" source="_G4XFthJA_eqd3cxjOpP-126" target="_G4XFthJA_eqd3cxjOpP-157">
          <mxGeometry relative="1" as="geometry" />
        </mxCell>
        <mxCell id="_G4XFthJA_eqd3cxjOpP-160" value="GCP&lt;br&gt;Meta Event Data&lt;br&gt;Ingestion Pipeline" style="shape=hexagon;perimeter=hexagonPerimeter2;whiteSpace=wrap;html=1;fixedSize=1;" vertex="1" parent="1">
          <mxGeometry x="800" y="1081.3200000000002" width="130" height="93" as="geometry" />
        </mxCell>
        <mxCell id="_G4XFthJA_eqd3cxjOpP-161" style="edgeStyle=orthogonalEdgeStyle;rounded=0;orthogonalLoop=1;jettySize=auto;html=1;entryX=0;entryY=0.5;entryDx=0;entryDy=0;" edge="1" parent="1" source="_G4XFthJA_eqd3cxjOpP-47" target="_G4XFthJA_eqd3cxjOpP-160">
          <mxGeometry relative="1" as="geometry" />
        </mxCell>
        <mxCell id="_G4XFthJA_eqd3cxjOpP-162" value="consumes" style="text;html=1;align=center;verticalAlign=middle;resizable=0;points=[];autosize=1;strokeColor=none;fillColor=none;" vertex="1" parent="1">
          <mxGeometry x="630.53" y="1490" width="80" height="30" as="geometry" />
        </mxCell>
        <mxCell id="_G4XFthJA_eqd3cxjOpP-163" value="sends events" style="text;html=1;align=center;verticalAlign=middle;resizable=0;points=[];autosize=1;strokeColor=none;fillColor=none;" vertex="1" parent="1">
          <mxGeometry x="495" y="1880" width="90" height="30" as="geometry" />
        </mxCell>
        <mxCell id="_G4XFthJA_eqd3cxjOpP-164" value="meta events manager" style="text;html=1;align=center;verticalAlign=middle;resizable=0;points=[];autosize=1;strokeColor=none;fillColor=none;" vertex="1" parent="1">
          <mxGeometry x="495" y="2040" width="140" height="30" as="geometry" />
        </mxCell>
        <mxCell id="_G4XFthJA_eqd3cxjOpP-165" value="ad campaigns, social media integrations, etc" style="text;html=1;align=center;verticalAlign=middle;resizable=0;points=[];autosize=1;strokeColor=none;fillColor=none;" vertex="1" parent="1">
          <mxGeometry x="160" y="1970" width="260" height="30" as="geometry" />
        </mxCell>
      </root>
    </mxGraphModel>
  </diagram>
</mxfile>
